<?xml version="1.0" encoding="UTF-8" standalone="no"?><!DOCTYPE svg PUBLIC "-//W3C//DTD SVG 1.1//EN" "http://www.w3.org/Graphics/SVG/1.1/DTD/svg11.dtd"><svg width="100%" height="100%" viewBox="0 0 2020 2745" version="1.1" xmlns="http://www.w3.org/2000/svg" xmlns:xlink="http://www.w3.org/1999/xlink" xml:space="preserve" xmlns:serif="http://www.serif.com/" style="fill-rule:evenodd;clip-rule:evenodd;stroke-linejoin:round;stroke-miterlimit:2;"><g><path d="M2019.03,2019.03l-1112.17,0l0,-171.1l941.071,0l0,-1676.83l-1676.82,0l0,992.404l-171.104,0l-0,-1163.51l2019.03,0l0,2019.03Z" style="fill-rule:nonzero;"/><path d="M606.996,835.608l11.708,82.917c-41.65,2.229 -74.783,18.408 -98.729,49.567c-0.846,1.1 -1.629,2.121 -2.429,3.212l-68.334,-52.521l0.038,-0.05c39.258,-51.087 91.871,-78.741 157.746,-83.125Z" style="fill-rule:nonzero;"/><path d="M1322.56,1437.21c-77.633,35.38 -151.237,37.45 -220.687,6.121c-0.792,-0.358 -1.425,-0.875 -2.25,-1.25l43.592,-96.633c47.958,20.817 95.895,19.125 143.833,-5.017l35.512,96.779Z" style="fill-rule:nonzero;"/><path d="M665.404,693.321l-189.621,-0l-152.754,-224.192l-0.287,-0.4l-69.125,0l-0,-136.362l89.483,-0c0,-0 17.371,-0.225 30.596,-2.409c3.337,-0.583 10.008,-1.325 13.35,-2.02l6.441,-1.438c18.63,-4.358 33.009,-10.929 42.788,-19.9c12.825,-11.729 20.992,-28.462 25.187,-49.391l14.151,-14.438l145.854,-0c-5.063,101.333 -48.659,167.929 -130.842,198.754l19.15,27.604l155.629,224.192Z" style="fill-rule:nonzero;"/><rect x="250.442" y="911.188" width="81.367" height="80.979" style="fill-rule:nonzero;"/><rect x="250.442" y="1080.45" width="108.833" height="84.004" style="fill-rule:nonzero;"/><rect x="250.475" y="738.896" width="102.262" height="84.629" style="fill-rule:nonzero;"/><rect x="1644.98" y="978.442" width="102.262" height="84.629" style="fill-rule:nonzero;"/><rect x="1011.86" y="740.083" width="81.367" height="80.975" style="fill-rule:nonzero;"/><path d="M1072.96,1309.5l-153.571,0l-60.129,-142.417l-269.162,0l54.912,-129.279l159.609,0l-79.375,-188.975l76.354,-179.821l271.362,640.492Z" style="fill-rule:nonzero;"/><path d="M1412.81,561.067l0,703.891l-154.02,0l-71.03,-95.291l0,-250.533l71.03,95.074l-0,-453.141l154.02,-0Z" style="fill-rule:nonzero;"/><path d="M1766.18,596.863c-0.245,88.733 -45.466,179.096 -135.012,270.358l-98.259,-98.258l6.146,-6.142c49.817,-49.813 75.275,-100.892 76.413,-153.359c1.137,-52.374 -22.775,-103.054 -71.658,-151.933c-48.88,-48.879 -99.884,-73.116 -152.984,-72.708c-52.342,0.446 -105.825,27.817 -160.4,81.658l-96.992,-96.991l0.575,-0.571c87.021,-87.029 175.555,-132.125 265.555,-135.259c89.958,-3.087 173.696,34.042 251.041,111.388c77.388,77.387 115.942,161.321 115.575,251.817Z" style="fill-rule:nonzero;"/><rect x="915.796" y="1509.05" width="154.075" height="252.133" style="fill-rule:nonzero;"/><rect x="838.8" y="294.2" width="154.075" height="252.138" style="fill-rule:nonzero;"/><path d="M1556.22,1096.77l81.5,191.925l-84.717,201.692l170.354,-0l58.596,137.975l-287.275,-0l-64.179,152.008l-163.913,-0l289.634,-683.6Z" style="fill-rule:nonzero;"/><path d="M432.317,2051.93c-100.604,0 -201.288,-38.358 -277.963,-115.033c-74.137,-74.138 -115.054,-172.642 -115.208,-277.358c-0.154,-104.817 40.529,-203.305 114.558,-277.329c152.742,-152.751 401.588,-152.451 554.7,0.662l-114.283,114.283c-90.1,-90.1 -236.409,-90.396 -326.142,-0.662c-43.433,43.433 -67.304,101.254 -67.212,162.804c0.091,61.642 24.191,119.642 67.87,163.317c90.096,90.1 236.4,90.4 326.138,0.67l114.279,114.28c-76.254,76.254 -176.454,114.366 -276.737,114.366Z" style="fill-rule:nonzero;"/><path d="M996.567,2334.61l9.445,24.855l4.317,-0l9.754,-24.855l-4.721,0l-4.829,13.971c-0.821,2.259 -1.541,4.313 -2.104,6.367l-0.154,-0c-0.512,-2.054 -1.183,-4.108 -2.004,-6.367l-4.879,-13.971l-4.825,0Z" style="fill-rule:nonzero;"/><path d="M230.712,2424.15l45.455,13.796c-6.971,24.254 -18.559,42.275 -34.763,54.046c-16.208,11.775 -36.771,17.658 -61.687,17.658c-30.829,0 -56.171,-10.079 -76.017,-30.241c-19.85,-20.163 -29.775,-47.73 -29.775,-82.696c0,-36.988 9.979,-65.717 29.933,-86.184c19.955,-20.466 46.192,-30.695 78.709,-30.695c28.404,-0 51.47,8.029 69.208,24.1c10.558,9.5 18.475,23.145 23.758,40.933l-46.404,10.612c-2.746,-11.525 -8.471,-20.616 -17.183,-27.291c-8.708,-6.667 -19.296,-10.004 -31.754,-10.004c-17.209,-0 -31.171,5.912 -41.888,17.737c-10.716,11.825 -16.075,30.979 -16.075,57.458c0,28.096 5.279,48.109 15.838,60.03c10.554,11.925 24.283,17.891 41.175,17.891c12.458,0 23.175,-3.791 32.15,-11.375c8.975,-7.579 15.416,-19.5 19.32,-35.775Z" style="fill-rule:nonzero;"/><path d="M395.863,2377.62l34.687,-0c22.487,-0 36.529,-0.913 42.125,-2.734c5.596,-1.816 9.979,-4.945 13.146,-9.4c3.167,-4.441 4.75,-10 4.75,-16.675c-0,-7.475 -2.084,-13.512 -6.254,-18.112c-4.171,-4.6 -10.059,-7.504 -17.659,-8.717c-3.8,-0.504 -15.204,-0.758 -34.208,-0.758l-36.587,-0l-0,56.396Zm-46.88,128.25l0,-222.242l98.671,0c24.808,0 42.838,1.996 54.083,5.988c11.246,3.991 20.246,11.095 27.001,21.3c6.758,10.208 10.137,21.883 10.137,35.016c0,16.679 -5.121,30.45 -15.363,41.313c-10.241,10.866 -25.549,17.712 -45.924,20.541c10.133,5.659 18.499,11.875 25.099,18.646c6.6,6.771 15.492,18.796 26.688,36.084l28.35,43.354l-56.067,-0l-33.891,-48.363c-12.038,-17.279 -20.271,-28.166 -24.709,-32.666c-4.429,-4.496 -9.129,-7.58 -14.091,-9.246c-4.967,-1.671 -12.829,-2.504 -23.6,-2.504l-9.504,-0l-0,92.779l-46.88,-0Z" style="fill-rule:nonzero;"/><path d="M615.5,2505.87l0,-222.242l172.15,0l-0,37.596l-125.275,-0l0,49.271l116.563,-0l-0,37.441l-116.563,0l0,60.488l129.708,-0l0,37.446l-176.583,-0Z" style="fill-rule:nonzero;"/><path d="M987.325,2417.94l-31.992,-82.467l-31.358,82.467l63.35,-0Zm86.313,87.929l-50.996,-0l-20.271,-50.479l-92.809,-0l-19.162,50.479l-49.729,-0l90.429,-222.242l49.571,0l92.967,222.242Z" style="fill-rule:nonzero;"/><path d="M1131.41,2505.87l-0,-222.242l45.608,0l95.025,148.413l-0,-148.413l43.554,0l-0,222.242l-47.038,-0l-93.6,-144.925l0,144.925l-43.549,-0Z" style="fill-rule:nonzero;"/><path d="M1444.32,2321.22l-0,147.2l35.004,-0c13.087,-0 22.537,-0.704 28.346,-2.121c7.604,-1.821 13.908,-4.9 18.925,-9.25c5.012,-4.342 9.108,-11.496 12.275,-21.446c3.166,-9.958 4.75,-23.525 4.75,-40.708c-0,-17.179 -1.584,-30.367 -4.75,-39.567c-3.167,-9.196 -7.604,-16.371 -13.304,-21.525c-5.7,-5.154 -12.934,-8.641 -21.696,-10.462c-6.55,-1.413 -19.375,-2.121 -38.484,-2.121l-21.066,-0Zm-46.879,-37.596l85.683,0c19.317,0 34.05,1.417 44.183,4.242c13.621,3.841 25.288,10.666 35.004,20.471c9.713,9.8 17.1,21.804 22.171,36c5.067,14.2 7.6,31.712 7.6,52.533c0,18.287 -2.375,34.054 -7.129,47.296c-5.804,16.171 -14.096,29.258 -24.862,39.262c-8.134,7.579 -19.113,13.492 -32.942,17.738c-10.346,3.133 -24.179,4.7 -41.492,4.7l-88.216,-0l-0,-222.242Z" style="fill-rule:nonzero;"/><rect x="1662.85" y="2283.62" width="46.875" height="222.242" style="fill-rule:nonzero;"/><path d="M1909.87,2417.94l-31.992,-82.467l-31.354,82.467l63.346,-0Zm86.312,87.929l-50.995,-0l-20.271,-50.479l-92.804,-0l-19.167,50.479l-49.729,-0l90.429,-222.242l49.575,0l92.962,222.242Z" style="fill-rule:nonzero;"/><path d="M141.079,2670.36c0,-2.238 -0.316,-4.005 -0.95,-5.292c-0.629,-1.296 -1.437,-2.254 -2.412,-2.888c-1.038,-0.687 -2.129,-1.116 -3.28,-1.287c-1.154,-0.175 -2.329,-0.263 -3.537,-0.263c-6.904,0 -13.275,3.792 -19.112,11.367c-5.842,7.575 -9.534,17.021 -11.088,28.329c4.025,-0.579 8.571,-1.391 13.633,-2.454c5.059,-1.062 9.259,-2.454 12.596,-4.179c4.775,-2.467 8.325,-5.642 10.658,-9.513c2.33,-3.875 3.492,-8.479 3.492,-13.82Zm15.875,2.125c0,6.104 -1.912,11.35 -5.733,15.729c-3.825,4.379 -9.392,7.866 -16.696,10.454c-5.35,1.962 -10.758,3.546 -16.225,4.758c-5.463,1.213 -11.504,2.217 -18.121,3.021c0,9.092 1.684,16.038 5.05,20.838c3.367,4.808 8.296,7.208 14.8,7.208c5.75,-0 10.825,-1.438 15.225,-4.313c4.404,-2.879 8.729,-7.162 12.988,-12.858l4.916,3.625c-4.6,7.021 -10.354,12.625 -17.254,16.825c-6.904,4.2 -14.067,6.3 -21.487,6.3c-10.179,0 -17.963,-2.854 -23.338,-8.554c-5.379,-5.696 -8.071,-13.788 -8.071,-24.267c0,-7.254 1.138,-14.183 3.413,-20.775c2.271,-6.591 5.592,-12.621 9.962,-18.091c4.259,-5.355 9.479,-9.675 15.663,-12.955c6.183,-3.283 13.012,-4.92 20.492,-4.92c8.283,-0 14.424,1.683 18.424,5.054c3.996,3.366 5.992,7.675 5.992,12.921Z" style="fill-rule:nonzero;"/><path d="M250.058,2670.49c0,8.75 -1.325,17.633 -3.966,26.645c-2.65,9.009 -6.271,16.884 -10.875,23.621c-4.659,6.967 -10.209,12.625 -16.65,16.971c-6.446,4.346 -13.521,6.521 -21.229,6.521c-7.534,-0 -13.546,-2.088 -18.034,-6.263c-4.483,-4.175 -6.729,-9.775 -6.729,-16.8c-0,-1.325 0.158,-2.82 0.475,-4.495c0.312,-1.667 0.529,-2.788 0.646,-3.367l7.508,-27.642c0.575,-2.246 1.079,-4.446 1.509,-6.608c0.433,-2.154 0.645,-4.046 0.645,-5.654c0,-3.229 -0.558,-5.384 -1.679,-6.479c-1.121,-1.096 -3.325,-1.642 -6.6,-1.642c-1.208,-0 -2.85,0.246 -4.921,0.742c-2.071,0.495 -3.625,0.879 -4.658,1.158l1.292,-5.488c4.491,-1.995 8.475,-3.537 11.958,-4.62c3.483,-1.088 6.258,-1.63 8.329,-1.63c4.604,0 8.017,1.067 10.233,3.196c2.213,2.129 3.321,5.213 3.321,9.246c0,1.15 -0.1,2.546 -0.3,4.183c-0.204,1.646 -0.562,3.446 -1.079,5.4l-8.3,32.221c-0.579,2.188 -1.008,4.292 -1.296,6.304c-0.287,2.021 -0.429,3.313 -0.429,3.888c0,2.996 0.471,5.433 1.421,7.3c0.95,1.871 2.142,3.329 3.579,4.362c1.383,0.98 2.892,1.671 4.533,2.075c1.638,0.405 3.321,0.6 5.046,0.6c3.913,0 7.95,-1.233 12.125,-3.708c4.171,-2.479 7.809,-5.7 10.913,-9.675c3.396,-4.321 6.129,-9.146 8.2,-14.471c2.071,-5.325 3.104,-11.216 3.104,-17.662c-0,-3.454 -0.471,-6.121 -1.425,-7.992c-0.946,-1.875 -1.996,-3.496 -3.146,-4.879c-1.15,-1.442 -2.2,-2.95 -3.15,-4.533c-0.95,-1.584 -1.425,-3.817 -1.425,-6.7c0,-3.28 1.092,-5.784 3.279,-7.513c2.184,-1.725 4.488,-2.587 6.904,-2.587c3.392,-0 6.055,1.366 7.98,4.1c1.929,2.733 2.891,6.691 2.891,11.875Z" style="fill-rule:nonzero;"/><path d="M319.521,2670.36c-0,-2.238 -0.321,-4.005 -0.95,-5.292c-0.633,-1.296 -1.442,-2.254 -2.417,-2.888c-1.037,-0.687 -2.129,-1.116 -3.279,-1.287c-1.15,-0.175 -2.329,-0.263 -3.538,-0.263c-6.9,0 -13.274,3.792 -19.112,11.367c-5.842,7.575 -9.533,17.021 -11.088,28.329c4.025,-0.579 8.571,-1.391 13.634,-2.454c5.062,-1.062 9.258,-2.454 12.596,-4.179c4.775,-2.467 8.329,-5.642 10.658,-9.513c2.329,-3.875 3.496,-8.479 3.496,-13.82Zm15.875,2.125c-0,6.104 -1.913,11.35 -5.738,15.729c-3.825,4.379 -9.391,7.866 -16.695,10.454c-5.35,1.962 -10.759,3.546 -16.225,4.758c-5.463,1.213 -11.505,2.217 -18.117,3.021c-0,9.092 1.679,16.038 5.046,20.838c3.366,4.808 8.295,7.208 14.8,7.208c5.75,-0 10.829,-1.438 15.229,-4.313c4.4,-2.879 8.725,-7.162 12.983,-12.858l4.921,3.625c-4.604,7.021 -10.354,12.625 -17.258,16.825c-6.904,4.2 -14.067,6.3 -21.484,6.3c-10.183,0 -17.962,-2.854 -23.341,-8.554c-5.379,-5.696 -8.067,-13.788 -8.067,-24.267c0,-7.254 1.133,-14.183 3.408,-20.775c2.271,-6.591 5.592,-12.621 9.967,-18.091c4.254,-5.355 9.475,-9.675 15.658,-12.955c6.184,-3.283 13.013,-4.92 20.492,-4.92c8.288,-0 14.425,1.683 18.425,5.054c3.996,3.366 5.996,7.675 5.996,12.921Z" style="fill-rule:nonzero;"/><path d="M437.992,2731.65l-1.3,5.525c-5.196,2.071 -9.238,3.579 -12.125,4.529c-2.884,0.95 -5.8,1.421 -8.746,1.421c-4.617,-0 -8.083,-1.192 -10.392,-3.583c-2.304,-2.388 -3.458,-5.338 -3.458,-8.85c-0,-1.271 0.112,-2.667 0.342,-4.192c0.229,-1.525 0.608,-3.325 1.129,-5.4l8.525,-32.217c0.637,-2.475 1.141,-4.721 1.516,-6.741c0.375,-2.013 0.563,-3.625 0.563,-4.838c-0,-3.854 -0.917,-6.908 -2.746,-9.154c-1.829,-2.246 -4.537,-3.371 -8.133,-3.371c-3.484,0 -7.392,1.154 -11.73,3.463c-4.337,2.3 -8.416,5.641 -12.237,10.025l-14.746,63.395l-16.117,0l12.942,-55.979c0.288,-1.379 0.704,-3.379 1.25,-6c0.546,-2.621 0.821,-4.737 0.821,-6.35c0,-3.225 -0.55,-5.383 -1.642,-6.475c-1.1,-1.1 -3.291,-1.646 -6.587,-1.646c-1.275,0 -2.896,0.217 -4.858,0.646c-1.967,0.434 -3.501,0.796 -4.601,1.079l1.305,-5.52c4.508,-2.017 8.495,-3.509 11.966,-4.488c3.471,-0.979 6.45,-1.467 8.938,-1.467c4.567,0 7.833,1.238 9.8,3.717c1.962,2.475 3.008,5.9 3.125,10.275l0.512,0c6.305,-5.067 11.75,-8.825 16.338,-11.271c4.583,-2.446 9.8,-3.666 15.642,-3.666c5.504,-0 9.804,1.591 12.9,4.791c3.091,3.196 4.641,7.384 4.641,12.567c0,1.037 -0.158,2.879 -0.475,5.529c-0.317,2.65 -0.821,5.267 -1.508,7.863l-7.259,27.725c-0.52,1.841 -1.025,3.962 -1.512,6.35c-0.492,2.387 -0.733,4.245 -0.733,5.57c-0,3.284 0.716,5.513 2.158,6.696c1.437,1.179 3.796,1.767 7.079,1.767c1.092,-0 2.663,-0.183 4.704,-0.558c2.046,-0.371 3.613,-0.763 4.709,-1.167Z" style="fill-rule:nonzero;"/><path d="M469.225,2743.47c-5.467,-0 -9.462,-1.104 -11.996,-3.321c-2.529,-2.213 -3.796,-5.392 -3.796,-9.533c0,-1.321 0.088,-2.575 0.263,-3.755c0.171,-1.175 0.4,-2.516 0.687,-4.012l13.45,-57.638l-15.433,0l1.817,-7.854l15.75,0l6.02,-25.279l15.517,0l-5.833,25.279l24.021,0l-1.805,7.854l-23.82,0l-11.138,47.542c-0.517,2.192 -0.95,4.3 -1.296,6.346c-0.341,2.042 -0.516,3.783 -0.516,5.221c-0,3.158 0.791,5.475 2.375,6.946c1.583,1.462 4.446,2.195 8.587,2.195c1.496,0 3.596,-0.183 6.3,-0.558c2.704,-0.375 4.804,-0.85 6.3,-1.425l-1.466,6.3c-4.03,1.55 -7.826,2.888 -11.392,4.013c-3.567,1.116 -7.763,1.679 -12.596,1.679Z" style="fill-rule:nonzero;"/><path d="M624.108,2637.05c0,-4.242 -1.104,-7.558 -3.312,-9.946c-2.213,-2.379 -5.409,-3.571 -9.596,-3.571c-5.45,0 -9.838,1.955 -13.167,5.855c-3.329,3.908 -4.987,8.583 -4.987,14.037c-0,3.733 0.658,7.479 1.979,11.242c1.325,3.758 3.158,7.933 5.517,12.529c8.312,-4.079 14.316,-8.513 18.016,-13.308c3.7,-4.792 5.55,-10.405 5.55,-16.838Zm-11.133,84.246c-4.829,-7.938 -9.262,-15.375 -13.287,-22.308c-4.03,-6.93 -7.796,-13.73 -11.305,-20.405c-6.554,3.505 -11.645,8.084 -15.271,13.742c-3.624,5.654 -5.437,11.929 -5.437,18.821c0,6.721 1.742,12.046 5.221,15.979c3.479,3.938 8.383,5.9 14.712,5.9c4.6,0 9.059,-1.025 13.375,-3.079c4.313,-2.054 8.309,-4.938 11.992,-8.65Zm66.958,-57.213l-1.379,5.7c-2.475,0.23 -5.667,0.805 -9.579,1.725c-3.912,0.917 -7.333,2.705 -10.267,5.35c-1.437,1.321 -3.162,3.375 -5.171,6.167c-2.012,2.792 -4.424,6.142 -7.241,10.05c-2.121,2.938 -4.892,6.646 -8.313,11.133c-3.421,4.492 -6.533,8.167 -9.35,11.046c2.125,3.45 4.338,6.617 6.638,9.492c2.296,2.875 4.421,4.975 6.375,6.3c2.012,1.379 5.012,2.512 9.004,3.404c3.996,0.896 7.342,1.396 10.042,1.508l-1.467,5.7l-33.133,0l-9.838,-15.616c-2.587,2.287 -5.162,4.491 -7.721,6.612c-2.562,2.117 -5.566,4.121 -9.016,6.009c-3.455,1.95 -6.846,3.42 -10.184,4.425c-3.337,1.004 -6.816,1.504 -10.437,1.504c-8.746,-0 -15.979,-2.471 -21.704,-7.413c-5.721,-4.941 -8.584,-11.662 -8.584,-20.162c0,-8.796 3.034,-16.596 9.104,-23.404c6.067,-6.805 15.4,-13.455 27.996,-19.95c-2.646,-5.005 -4.7,-9.405 -6.166,-13.2c-1.467,-3.796 -2.2,-7.767 -2.2,-11.909c-0,-4.887 0.95,-9.316 2.845,-13.287c1.901,-3.971 4.459,-7.392 7.68,-10.267c3.05,-2.704 6.787,-4.833 11.216,-6.387c4.43,-1.555 8.888,-2.33 13.375,-2.33c6.671,0 12.196,1.825 16.567,5.48c4.371,3.654 6.558,8.641 6.558,14.97c0,7.134 -2.4,13.375 -7.191,18.725c-4.792,5.346 -13.213,10.9 -25.267,16.65c4.254,7.884 7.842,14.413 10.771,19.588c2.933,5.179 6.725,11.475 11.379,18.9c2.983,-3.396 5.683,-6.746 8.092,-10.054c2.412,-3.304 4.879,-7.063 7.404,-11.263c1.604,-2.7 2.854,-5.175 3.746,-7.416c0.887,-2.246 1.333,-4.084 1.333,-5.525c-0,-1.492 -1.162,-2.73 -3.492,-3.709c-2.333,-0.979 -5.654,-1.929 -9.971,-2.846l1.384,-5.7l46.162,0Z" style="fill-rule:nonzero;"/><path d="M807.637,2664.43c0,2.534 -0.995,4.875 -2.983,7.034c-1.987,2.162 -4.45,3.237 -7.387,3.237c-1.9,0 -3.775,-0.258 -5.617,-0.775c-1.846,-0.521 -3.858,-1.296 -6.05,-2.333c-3.158,1.787 -6.421,3.983 -9.783,6.6c-3.363,2.621 -7.025,5.787 -10.992,9.508c3.283,8.521 6.058,15.5 8.333,20.942c2.275,5.437 4.217,9.883 5.83,13.337c2.07,4.317 4.358,7.379 6.862,9.196c2.5,1.813 5.246,2.717 8.242,2.717c1.379,-0 3.275,-0.204 5.691,-0.621c2.417,-0.413 4.288,-0.838 5.609,-1.279l-1.296,5.654c-5.358,2.167 -9.563,3.625 -12.613,4.367c-3.054,0.737 -6.137,1.108 -9.246,1.108c-3.683,-0 -6.837,-1.021 -9.458,-3.058c-2.625,-2.042 -5.137,-5.738 -7.55,-11.088c-2.35,-5.121 -4.446,-10.167 -6.283,-15.142c-1.833,-4.975 -3.646,-9.675 -5.421,-14.108l-9.958,8.421l-7.48,33.512l-16.116,0l25.687,-111.125c0.4,-1.783 0.675,-3.02 0.817,-3.712c0.146,-0.692 0.217,-1.554 0.217,-2.592c-0,-2.071 -0.346,-3.671 -1.038,-4.791c-0.691,-1.125 -1.675,-1.971 -2.946,-2.55c-1.212,-0.517 -2.741,-0.863 -4.595,-1.038c-1.846,-0.171 -3.725,-0.371 -5.634,-0.6l1.213,-5.267l32.108,-1.895l0.867,1.295l-21.117,89.821l0.342,0c6.495,-7.016 12.404,-13.1 17.72,-18.25c5.317,-5.146 10.88,-10.396 16.688,-15.746c4.137,-3.795 7.417,-6.4 9.829,-7.808c2.413,-1.408 5.004,-2.117 7.763,-2.117c2.929,0 5.287,0.821 7.07,2.463c1.784,1.642 2.675,3.871 2.675,6.683Z" style="fill-rule:nonzero;"/><path d="M880.029,2685.17c0,-8.175 -1.454,-14.313 -4.358,-18.4c-2.904,-4.084 -7.092,-6.134 -12.554,-6.134c-4.775,0 -9.275,1.471 -13.505,4.409c-4.224,2.937 -7.866,7.716 -10.912,14.337c-2.363,5.013 -4.087,10.584 -5.179,16.717c-1.092,6.133 -1.642,11.787 -1.642,16.971c0,8.237 1.425,14.471 4.275,18.704c2.846,4.233 7.146,6.35 12.896,6.35c5.121,-0 9.667,-1.617 13.633,-4.838c3.971,-3.229 7.192,-7.312 9.667,-12.266c2.471,-4.842 4.371,-10.384 5.692,-16.629c1.325,-6.25 1.987,-12.655 1.987,-19.221Zm17.6,3.283c0,6.796 -1.15,13.592 -3.45,20.388c-2.3,6.795 -5.637,12.75 -10.008,17.875c-4.429,5.295 -9.767,9.545 -16.009,12.737c-6.241,3.196 -13.474,4.796 -21.699,4.796c-9.551,-0 -17.301,-3.083 -23.255,-9.242c-5.95,-6.162 -8.929,-14.454 -8.929,-24.875c0,-7.658 1.263,-14.8 3.796,-21.416c2.529,-6.621 5.925,-12.438 10.183,-17.45c4.313,-5.009 9.65,-9.055 16.005,-12.134c6.354,-3.079 13.245,-4.616 20.666,-4.616c10.238,-0 18.25,3.12 24.029,9.37c5.784,6.246 8.671,14.434 8.671,24.567Z" style="fill-rule:nonzero;"/><path d="M1053.72,2731.91l-1.296,5.521c-5.317,2.129 -9.554,3.609 -12.733,4.442c-3.175,0.837 -5.888,1.25 -8.138,1.25c-4.621,-0 -8.083,-1.192 -10.392,-3.583c-2.308,-2.388 -3.458,-5.338 -3.458,-8.85c0,-1.271 0.113,-2.667 0.342,-4.192c0.229,-1.525 0.604,-3.325 1.129,-5.4l8.525,-32.217c0.637,-2.475 1.142,-4.721 1.517,-6.741c0.375,-2.013 0.562,-3.625 0.562,-4.838c0,-3.854 -0.829,-6.908 -2.496,-9.154c-1.658,-2.246 -4.291,-3.371 -7.891,-3.371c-3.834,0 -7.596,0.908 -11.284,2.725c-3.691,1.813 -7.854,5.2 -12.487,10.154l-15.146,64.004l-16.029,0l13.6,-57.704c0.291,-1.271 0.562,-2.608 0.821,-4.016c0.262,-1.413 0.387,-2.463 0.387,-3.155c0,-3.741 -0.925,-6.679 -2.783,-8.808c-1.859,-2.133 -4.588,-3.2 -8.188,-3.2c-3.258,0 -6.858,0.825 -10.804,2.463c-3.942,1.645 -8.516,5.32 -13.716,11.025l-14.742,63.395l-16.117,0l12.942,-55.979c0.458,-2.012 0.904,-4.175 1.333,-6.479c0.433,-2.3 0.65,-4.258 0.65,-5.871c0,-3.341 -0.55,-5.546 -1.646,-6.608c-1.096,-1.067 -3.233,-1.6 -6.412,-1.6c-1.275,-0 -2.909,0.242 -4.904,0.725c-1.992,0.483 -3.538,0.871 -4.638,1.175l1.3,-5.563c4.513,-2.029 8.5,-3.537 11.971,-4.52c3.471,-0.988 6.45,-1.48 8.933,-1.48c4.63,0 7.909,1.255 9.846,3.759c1.938,2.504 2.963,5.912 3.079,10.237l0.517,0c6.779,-5.358 12.354,-9.187 16.717,-11.487c4.366,-2.304 9.566,-3.454 15.6,-3.454c5.112,-0 9.262,1.479 12.45,4.445c3.191,2.967 4.987,6.692 5.387,11.184l0.342,-0c6.133,-5.125 11.587,-9.013 16.375,-11.659c4.783,-2.65 10.35,-3.97 16.712,-3.97c5.5,-0 9.725,1.591 12.675,4.791c2.95,3.196 4.425,7.384 4.425,12.567c0,1.037 -0.158,2.879 -0.475,5.529c-0.316,2.65 -0.816,5.267 -1.508,7.863l-7.267,27.725c-0.521,1.841 -1.012,3.962 -1.475,6.35c-0.458,2.387 -0.691,4.245 -0.691,5.57c-0,3.284 0.691,5.513 2.075,6.696c1.383,1.179 3.716,1.767 7,1.767c1.095,-0 2.675,-0.142 4.75,-0.429c2.075,-0.284 3.658,-0.634 4.754,-1.034Z" style="fill-rule:nonzero;"/><path d="M1209.12,2731.91l-1.3,5.521c-5.313,2.129 -9.554,3.609 -12.729,4.442c-3.175,0.837 -5.888,1.25 -8.138,1.25c-4.621,-0 -8.083,-1.192 -10.392,-3.583c-2.308,-2.388 -3.462,-5.338 -3.462,-8.85c0,-1.271 0.117,-2.667 0.342,-4.192c0.233,-1.525 0.608,-3.325 1.133,-5.4l8.525,-32.217c0.637,-2.475 1.142,-4.721 1.517,-6.741c0.375,-2.013 0.562,-3.625 0.562,-4.838c0,-3.854 -0.829,-6.908 -2.496,-9.154c-1.658,-2.246 -4.291,-3.371 -7.891,-3.371c-3.834,0 -7.6,0.908 -11.284,2.725c-3.691,1.813 -7.854,5.2 -12.483,10.154l-15.15,64.004l-16.029,0l13.604,-57.704c0.283,-1.271 0.562,-2.608 0.817,-4.016c0.262,-1.413 0.391,-2.463 0.391,-3.155c0,-3.741 -0.933,-6.679 -2.787,-8.808c-1.858,-2.133 -4.588,-3.2 -8.188,-3.2c-3.258,0 -6.858,0.825 -10.804,2.463c-3.942,1.645 -8.517,5.32 -13.716,11.025l-14.746,63.395l-16.113,0l12.942,-55.979c0.458,-2.012 0.9,-4.175 1.333,-6.479c0.429,-2.3 0.646,-4.258 0.646,-5.871c-0,-3.341 -0.55,-5.546 -1.638,-6.608c-1.095,-1.067 -3.241,-1.6 -6.42,-1.6c-1.267,-0 -2.909,0.242 -4.9,0.725c-1.996,0.483 -3.542,0.871 -4.642,1.175l1.3,-5.563c4.508,-2.029 8.504,-3.537 11.975,-4.52c3.467,-0.988 6.446,-1.48 8.937,-1.48c4.621,0 7.905,1.255 9.842,3.759c1.938,2.504 2.963,5.912 3.079,10.237l0.517,0c6.779,-5.358 12.35,-9.187 16.717,-11.487c4.366,-2.304 9.566,-3.454 15.6,-3.454c5.112,-0 9.262,1.479 12.45,4.445c3.191,2.967 4.987,6.692 5.387,11.184l0.342,-0c6.129,-5.125 11.592,-9.013 16.371,-11.659c4.783,-2.65 10.354,-3.97 16.716,-3.97c5.5,-0 9.725,1.591 12.675,4.791c2.95,3.196 4.425,7.384 4.425,12.567c0,1.037 -0.158,2.879 -0.475,5.529c-0.316,2.65 -0.816,5.267 -1.508,7.863l-7.267,27.725c-0.52,1.841 -1.012,3.962 -1.475,6.35c-0.458,2.387 -0.691,4.245 -0.691,5.57c-0,3.284 0.691,5.513 2.075,6.696c1.383,1.179 3.716,1.767 7,1.767c1.091,-0 2.675,-0.142 4.75,-0.429c2.075,-0.284 3.658,-0.634 4.754,-1.034Z" style="fill-rule:nonzero;"/><path d="M1275.23,2729.58l-0.517,0c-2.65,2.129 -5.179,4.088 -7.596,5.867c-2.416,1.787 -4.804,3.283 -7.162,4.491c-2.762,1.38 -5.263,2.371 -7.513,2.971c-2.241,0.609 -5.175,0.909 -8.8,0.909c-5.524,-0 -9.808,-1.596 -12.862,-4.788c-3.046,-3.192 -4.567,-7.379 -4.567,-12.554c0,-1.379 0.113,-3.017 0.342,-4.921c0.229,-1.896 0.775,-4.712 1.633,-8.454l6.704,-27.35c0.571,-2.533 1.046,-4.775 1.417,-6.733c0.375,-1.955 0.563,-3.821 0.563,-5.609c-0,-3.221 -0.534,-5.362 -1.596,-6.425c-1.063,-1.066 -3.229,-1.6 -6.5,-1.6c-1.263,0 -2.871,0.246 -4.817,0.725c-1.954,0.484 -3.475,0.875 -4.566,1.175l1.291,-5.562c4.492,-2.029 8.446,-3.563 11.867,-4.604c3.421,-1.046 6.171,-1.567 8.242,-1.567c4.6,-0 7.979,1.075 10.137,3.233c2.158,2.159 3.237,5.221 3.237,9.192c0,1.033 -0.12,2.446 -0.345,4.229c-0.234,1.779 -0.579,3.563 -1.038,5.346l-7.617,31.925c-0.566,2.417 -1.041,4.675 -1.412,6.775c-0.375,2.1 -0.563,3.7 -0.563,4.787c0,3.855 0.834,6.905 2.496,9.15c1.671,2.242 4.317,3.363 7.938,3.363c3.671,-0 7.454,-0.963 11.329,-2.892c3.879,-1.925 7.775,-4.846 11.683,-8.758l15.021,-64.971l15.054,-1.033l1.038,1.291l-12.829,55.567c-0.575,2.363 -1.092,4.733 -1.55,7.121c-0.463,2.383 -0.688,4.071 -0.688,5.046c0,3.279 0.704,5.508 2.113,6.691c1.4,1.175 3.741,1.763 7.016,1.763c1.092,-0 2.642,-0.171 4.65,-0.517c2.009,-0.346 3.559,-0.716 4.654,-1.121l-1.295,5.525c-4.775,1.955 -8.759,3.421 -11.946,4.4c-3.196,0.975 -6.142,1.463 -8.842,1.463c-4.658,-0 -8.125,-1.35 -10.396,-4.05c-2.271,-2.704 -3.408,-5.871 -3.408,-9.496Z" style="fill-rule:nonzero;"/><path d="M1415,2731.65l-1.296,5.525c-5.196,2.071 -9.237,3.579 -12.129,4.529c-2.884,0.95 -5.796,1.421 -8.742,1.421c-4.621,-0 -8.083,-1.192 -10.387,-3.583c-2.313,-2.388 -3.463,-5.338 -3.463,-8.85c0,-1.271 0.113,-2.667 0.346,-4.192c0.225,-1.525 0.6,-3.325 1.125,-5.4l8.525,-32.217c0.633,-2.475 1.142,-4.721 1.517,-6.741c0.371,-2.013 0.562,-3.625 0.562,-4.838c0,-3.854 -0.917,-6.908 -2.746,-9.154c-1.829,-2.246 -4.541,-3.371 -8.133,-3.371c-3.483,0 -7.392,1.154 -11.729,3.463c-4.338,2.3 -8.413,5.641 -12.238,10.025l-14.741,63.395l-16.121,0l12.941,-55.979c0.284,-1.379 0.705,-3.379 1.251,-6c0.545,-2.621 0.82,-4.737 0.82,-6.35c0,-3.225 -0.55,-5.383 -1.641,-6.475c-1.096,-1.1 -3.296,-1.646 -6.592,-1.646c-1.271,0 -2.892,0.217 -4.858,0.646c-1.963,0.434 -3.496,0.796 -4.596,1.079l1.3,-5.52c4.508,-2.017 8.5,-3.509 11.971,-4.488c3.466,-0.979 6.446,-1.467 8.937,-1.467c4.567,0 7.834,1.238 9.8,3.717c1.963,2.475 3.004,5.9 3.125,10.275l0.517,0c6.3,-5.067 11.746,-8.825 16.333,-11.271c4.579,-2.446 9.796,-3.666 15.642,-3.666c5.504,-0 9.8,1.591 12.896,4.791c3.096,3.196 4.641,7.384 4.641,12.567c0,1.037 -0.158,2.879 -0.475,5.529c-0.312,2.65 -0.816,5.267 -1.508,7.863l-7.254,27.725c-0.521,1.841 -1.025,3.962 -1.517,6.35c-0.487,2.387 -0.729,4.245 -0.729,5.57c-0,3.284 0.713,5.513 2.154,6.696c1.442,1.179 3.8,1.767 7.079,1.767c1.096,-0 2.663,-0.183 4.704,-0.558c2.046,-0.371 3.613,-0.763 4.709,-1.167Z" style="fill-rule:nonzero;"/><path d="M1473.76,2621.89c0,3.283 -1.066,6.141 -3.196,8.587c-2.129,2.446 -4.77,3.667 -7.937,3.667c-2.933,-0 -5.467,-1.163 -7.592,-3.496c-2.129,-2.329 -3.191,-4.987 -3.191,-7.979c-0,-3.167 1.062,-5.925 3.191,-8.283c2.125,-2.363 4.659,-3.538 7.592,-3.538c3.279,0 5.95,1.108 8.025,3.321c2.071,2.212 3.108,4.787 3.108,7.721Zm-6.129,110.362l-1.296,5.521c-5.291,2.129 -9.52,3.608 -12.683,4.442c-3.162,0.837 -5.867,1.25 -8.108,1.25c-4.604,-0 -8.054,-1.196 -10.354,-3.584c-2.305,-2.387 -3.45,-5.337 -3.45,-8.854c-0,-1.325 0.112,-2.708 0.345,-4.141c0.225,-1.442 0.6,-3.259 1.117,-5.446l9.121,-36.709c0.454,-2.016 0.904,-4.175 1.333,-6.479c0.433,-2.304 0.646,-4.266 0.646,-5.875c-0,-3.225 -0.533,-5.366 -1.592,-6.433c-1.062,-1.067 -3.233,-1.6 -6.504,-1.6c-1.266,-0 -2.946,0.204 -5.037,0.604c-2.096,0.4 -3.692,0.746 -4.779,1.038l1.291,-5.525c4.483,-2.013 8.508,-3.505 12.075,-4.488c3.563,-0.975 6.383,-1.462 8.454,-1.462c4.713,-0 8.134,1.12 10.263,3.366c2.125,2.246 3.187,5.267 3.187,9.067c0,1.037 -0.112,2.45 -0.341,4.237c-0.229,1.78 -0.575,3.567 -1.038,5.355l-9.167,36.708c-0.575,2.246 -1.074,4.45 -1.499,6.608c-0.43,2.163 -0.646,3.934 -0.646,5.313c-0,3.283 0.733,5.529 2.195,6.737c1.459,1.213 3.83,1.813 7.096,1.813c1.088,-0 2.65,-0.142 4.684,-0.429c2.033,-0.288 3.595,-0.63 4.687,-1.034Z" style="fill-rule:nonzero;"/><path d="M1565.05,2664.43c-0,2.534 -0.992,4.875 -2.984,7.034c-1.987,2.162 -4.445,3.237 -7.383,3.237c-1.9,0 -3.779,-0.258 -5.621,-0.775c-1.841,-0.521 -3.858,-1.296 -6.046,-2.333c-3.162,1.787 -6.42,3.983 -9.787,6.6c-3.363,2.621 -7.021,5.787 -10.992,9.508c3.288,8.521 6.063,15.5 8.334,20.942c2.271,5.437 4.216,9.883 5.829,13.337c2.071,4.317 4.362,7.379 6.862,9.196c2.505,1.813 5.25,2.717 8.242,2.717c1.379,-0 3.279,-0.204 5.692,-0.621c2.416,-0.413 4.283,-0.838 5.612,-1.279l-1.3,5.654c-5.354,2.167 -9.562,3.625 -12.612,4.367c-3.054,0.737 -6.138,1.108 -9.246,1.108c-3.688,-0 -6.838,-1.021 -9.459,-3.058c-2.62,-2.042 -5.137,-5.738 -7.545,-11.088c-2.355,-5.121 -4.45,-10.167 -6.288,-15.142c-1.833,-4.975 -3.642,-9.675 -5.416,-14.108l-9.959,8.421l-7.483,33.512l-16.117,0l25.688,-111.125c0.404,-1.783 0.675,-3.02 0.821,-3.712c0.141,-0.692 0.216,-1.554 0.216,-2.592c0,-2.071 -0.346,-3.671 -1.037,-4.791c-0.696,-1.125 -1.679,-1.971 -2.946,-2.55c-1.213,-0.517 -2.746,-0.863 -4.596,-1.038c-1.85,-0.171 -3.725,-0.371 -5.633,-0.6l1.212,-5.267l32.104,-1.895l0.867,1.295l-21.121,89.821l0.346,0c6.5,-7.016 12.404,-13.1 17.721,-18.25c5.321,-5.146 10.883,-10.396 16.687,-15.746c4.138,-3.795 7.421,-6.4 9.834,-7.808c2.412,-1.408 5,-2.117 7.758,-2.117c2.929,0 5.292,0.821 7.071,2.463c1.783,1.642 2.675,3.871 2.675,6.683Z" style="fill-rule:nonzero;"/><path d="M1638.33,2675.67c-0,-1.9 -0.204,-3.713 -0.604,-5.442c-0.404,-1.729 -1.242,-3.342 -2.504,-4.837c-1.155,-1.442 -2.738,-2.592 -4.75,-3.459c-2.013,-0.862 -4.546,-1.296 -7.592,-1.296c-4.204,0 -8.292,1.384 -12.263,4.146c-3.97,2.771 -7.537,6.479 -10.704,11.146c-2.991,4.379 -5.441,9.679 -7.337,15.896c-1.9,6.221 -2.846,12.529 -2.846,18.917c-0,3.516 0.2,6.625 0.6,9.333c0.404,2.704 1.175,5.179 2.325,7.425c1.092,2.192 2.667,3.892 4.737,5.1c2.067,1.208 4.68,1.812 7.834,1.812c3.216,0 6.587,-0.904 10.121,-2.72c3.533,-1.813 7.508,-4.996 11.929,-9.546l11.054,-46.475Zm-12.437,54.587l-0.6,0c-1.267,1.038 -2.771,2.35 -4.525,3.934c-1.755,1.583 -3.805,3.091 -6.163,4.533c-2.242,1.437 -4.683,2.687 -7.321,3.754c-2.641,1.067 -5.516,1.6 -8.621,1.6c-8.329,0 -14.862,-2.996 -19.6,-8.987c-4.741,-5.984 -7.112,-14.163 -7.112,-24.525c-0,-7.142 1.321,-14.08 3.966,-20.813c2.646,-6.742 6.296,-12.787 10.95,-18.142c4.43,-5.12 9.688,-9.254 15.78,-12.387c6.095,-3.142 12.362,-4.708 18.8,-4.708c4.079,-0 7.975,0.541 11.683,1.637c3.704,1.096 6.625,2.333 8.75,3.713l15.838,-4.059l1.037,1.296l-13.142,55.717c-0.466,1.783 -0.937,3.958 -1.425,6.521c-0.491,2.562 -0.737,4.45 -0.737,5.658c-0,3.283 0.691,5.5 2.075,6.65c1.379,1.154 3.716,1.725 7,1.725c1.096,-0 2.654,-0.171 4.667,-0.517c2.016,-0.346 3.575,-0.716 4.666,-1.121l-1.291,5.525c-5.188,2.067 -9.055,3.563 -11.592,4.484c-2.534,0.921 -5.617,1.379 -9.246,1.379c-4.15,-0 -7.438,-1.208 -9.858,-3.625c-2.425,-2.417 -3.746,-5.496 -3.979,-9.242Z" style="fill-rule:nonzero;"/><path d="M1693.26,2743.47c-5.462,-0 -9.458,-1.104 -11.991,-3.321c-2.533,-2.213 -3.796,-5.392 -3.796,-9.533c-0,-1.321 0.087,-2.575 0.258,-3.755c0.175,-1.175 0.4,-2.516 0.692,-4.012l13.446,-57.638l-15.433,0l1.82,-7.854l15.75,0l6.017,-25.279l15.521,0l-5.834,25.279l24.021,0l-1.804,7.854l-23.821,0l-11.137,47.542c-0.517,2.192 -0.954,4.3 -1.296,6.346c-0.346,2.042 -0.521,3.783 -0.521,5.221c0,3.158 0.796,5.475 2.379,6.946c1.584,1.462 4.442,2.195 8.584,2.195c1.5,0 3.6,-0.183 6.304,-0.558c2.7,-0.375 4.8,-0.85 6.3,-1.425l-1.471,6.3c-4.025,1.55 -7.821,2.888 -11.387,4.013c-3.567,1.116 -7.767,1.679 -12.601,1.679Z" style="fill-rule:nonzero;"/><path d="M1782.14,2621.89c-0,3.283 -1.063,6.141 -3.192,8.587c-2.129,2.446 -4.775,3.667 -7.938,3.667c-2.937,-0 -5.466,-1.163 -7.596,-3.496c-2.129,-2.329 -3.187,-4.987 -3.187,-7.979c0,-3.167 1.058,-5.925 3.187,-8.283c2.13,-2.363 4.659,-3.538 7.596,-3.538c3.28,0 5.95,1.108 8.021,3.321c2.071,2.212 3.109,4.787 3.109,7.721Zm-6.125,110.362l-1.296,5.521c-5.292,2.129 -9.521,3.608 -12.684,4.442c-3.166,0.837 -5.866,1.25 -8.108,1.25c-4.608,-0 -8.058,-1.196 -10.354,-3.584c-2.304,-2.387 -3.454,-5.337 -3.454,-8.854c-0,-1.325 0.116,-2.708 0.345,-4.141c0.23,-1.442 0.605,-3.259 1.121,-5.446l9.117,-36.709c0.458,-2.016 0.904,-4.175 1.338,-6.479c0.429,-2.304 0.645,-4.266 0.645,-5.875c0,-3.225 -0.533,-5.366 -1.596,-6.433c-1.062,-1.067 -3.229,-1.6 -6.5,-1.6c-1.266,-0 -2.945,0.204 -5.037,0.604c-2.096,0.4 -3.692,0.746 -4.783,1.038l1.295,-5.525c4.484,-2.013 8.509,-3.505 12.071,-4.488c3.567,-0.975 6.384,-1.462 8.459,-1.462c4.708,-0 8.133,1.12 10.258,3.366c2.129,2.246 3.192,5.267 3.192,9.067c-0,1.037 -0.113,2.45 -0.342,4.237c-0.233,1.78 -0.579,3.567 -1.037,5.355l-9.167,36.708c-0.575,2.246 -1.075,4.45 -1.504,6.608c-0.425,2.163 -0.642,3.934 -0.642,5.313c0,3.283 0.733,5.529 2.196,6.737c1.458,1.213 3.825,1.813 7.096,1.813c1.083,-0 2.645,-0.142 4.683,-0.429c2.033,-0.288 3.596,-0.63 4.688,-1.034Z" style="fill-rule:nonzero;"/><path d="M1852.55,2685.17c-0,-8.175 -1.454,-14.313 -4.358,-18.4c-2.905,-4.084 -7.088,-6.134 -12.555,-6.134c-4.775,0 -9.275,1.471 -13.504,4.409c-4.229,2.937 -7.866,7.716 -10.912,14.337c-2.363,5.013 -4.088,10.584 -5.175,16.717c-1.096,6.133 -1.642,11.787 -1.642,16.971c-0,8.237 1.425,14.471 4.271,18.704c2.846,4.233 7.146,6.35 12.9,6.35c5.121,-0 9.667,-1.617 13.633,-4.838c3.967,-3.229 7.188,-7.312 9.663,-12.266c2.475,-4.842 4.37,-10.384 5.696,-16.629c1.325,-6.25 1.983,-12.655 1.983,-19.221Zm17.6,3.283c-0,6.796 -1.15,13.592 -3.45,20.388c-2.3,6.795 -5.638,12.75 -10.008,17.875c-4.43,5.295 -9.767,9.545 -16.005,12.737c-6.245,3.196 -13.475,4.796 -21.704,4.796c-9.546,-0 -17.296,-3.083 -23.25,-9.242c-5.958,-6.162 -8.929,-14.454 -8.929,-24.875c0,-7.658 1.263,-14.8 3.796,-21.416c2.529,-6.621 5.925,-12.438 10.179,-17.45c4.313,-5.009 9.646,-9.055 16.008,-12.134c6.355,-3.079 13.246,-4.616 20.663,-4.616c10.242,-0 18.25,3.12 24.029,9.37c5.783,6.246 8.671,14.434 8.671,24.567Z" style="fill-rule:nonzero;"/><path d="M1975.07,2731.65l-1.296,5.525c-5.2,2.071 -9.237,3.579 -12.129,4.529c-2.884,0.95 -5.796,1.421 -8.742,1.421c-4.621,-0 -8.083,-1.192 -10.387,-3.583c-2.313,-2.388 -3.463,-5.338 -3.463,-8.85c0,-1.271 0.113,-2.667 0.346,-4.192c0.225,-1.525 0.6,-3.325 1.125,-5.4l8.525,-32.217c0.633,-2.475 1.142,-4.721 1.517,-6.741c0.371,-2.013 0.562,-3.625 0.562,-4.838c0,-3.854 -0.917,-6.908 -2.746,-9.154c-1.829,-2.246 -4.541,-3.371 -8.133,-3.371c-3.483,0 -7.392,1.154 -11.729,3.463c-4.338,2.3 -8.413,5.641 -12.238,10.025l-14.741,63.395l-16.121,0l12.941,-55.979c0.284,-1.379 0.705,-3.379 1.251,-6c0.545,-2.621 0.82,-4.737 0.82,-6.35c0,-3.225 -0.55,-5.383 -1.645,-6.475c-1.092,-1.1 -3.292,-1.646 -6.588,-1.646c-1.271,0 -2.892,0.217 -4.858,0.646c-1.963,0.434 -3.496,0.796 -4.596,1.079l1.3,-5.52c4.508,-2.017 8.5,-3.509 11.971,-4.488c3.466,-0.979 6.446,-1.467 8.937,-1.467c4.567,0 7.834,1.238 9.8,3.717c1.963,2.475 3.004,5.9 3.125,10.275l0.517,0c6.3,-5.067 11.746,-8.825 16.329,-11.271c4.583,-2.446 9.8,-3.666 15.646,-3.666c5.504,-0 9.8,1.591 12.896,4.791c3.096,3.196 4.641,7.384 4.641,12.567c0,1.037 -0.158,2.879 -0.475,5.529c-0.312,2.65 -0.816,5.267 -1.508,7.863l-7.254,27.725c-0.521,1.841 -1.029,3.962 -1.517,6.35c-0.487,2.387 -0.729,4.245 -0.729,5.57c-0,3.284 0.713,5.513 2.154,6.696c1.442,1.179 3.8,1.767 7.079,1.767c1.096,-0 2.663,-0.183 4.704,-0.558c2.046,-0.371 3.613,-0.763 4.709,-1.167Z" style="fill-rule:nonzero;"/></g></svg>