<?xml version="1.0" encoding="UTF-8" standalone="no"?><!DOCTYPE svg PUBLIC "-//W3C//DTD SVG 1.1//EN" "http://www.w3.org/Graphics/SVG/1.1/DTD/svg11.dtd"><svg width="100%" height="100%" viewBox="0 0 476 162" version="1.1" xmlns="http://www.w3.org/2000/svg" xmlns:xlink="http://www.w3.org/1999/xlink" xml:space="preserve" xmlns:serif="http://www.serif.com/" style="fill-rule:evenodd;clip-rule:evenodd;stroke-linejoin:round;stroke-miterlimit:2;"><path d="M237.279,160.607c-4.334,0.751 -8.955,1.138 -13.868,1.138c-3.69,0 -7.572,-0.365 -11.642,-1.125c-4.728,-0.883 -9.037,-2.422 -12.945,-4.565c-4.515,-2.476 -8.256,-5.763 -11.241,-9.841c-3.424,-4.676 -5.408,-10.439 -5.408,-17.453c-0,-2.174 0.221,-4.241 0.651,-6.205c-1.104,0.12 -2.204,0.179 -3.302,0.179c-4.123,-0 -7.656,-0.799 -10.655,-2.11c-2.086,-0.913 -3.926,-2.04 -5.535,-3.361c-1.879,1.145 -3.781,2.118 -5.703,2.931c-4.042,1.711 -8.168,2.54 -12.366,2.54c-6.539,-0 -11.626,-1.847 -15.528,-4.902c-5.7,2.86 -12.218,4.402 -19.606,4.402c-8.082,-0 -14.28,-2.517 -18.923,-6.558c-3.56,-3.098 -6.223,-7.13 -7.53,-12.282c-1.448,1.35 -2.953,2.641 -4.508,3.879c-5.69,4.532 -12.135,8.16 -19.353,10.847c-7.195,2.678 -15.504,4.114 -24.957,4.114c-4.394,-0 -8.439,-0.572 -12.143,-1.639c-4.146,-1.195 -7.704,-2.904 -10.726,-5.012c-3.705,-2.584 -6.555,-5.761 -8.623,-9.465c-2.211,-3.962 -3.368,-8.326 -3.368,-13.118c0,-6.292 1.939,-11.592 5.478,-16.016c4.089,-5.111 9.845,-8.235 17.722,-8.331c-2.722,-4.525 -4.195,-9.925 -4.195,-16.289c0,-7.277 2.003,-13.731 5.86,-19.406c3.246,-4.778 7.599,-9.033 13.173,-12.646c4.719,-3.06 10.125,-5.68 16.244,-7.806c5.502,-1.912 11.282,-3.501 17.344,-4.76c5.828,-1.21 11.746,-2.175 17.753,-2.892c5.855,-0.699 11.403,-1.222 16.646,-1.571c5.251,-0.351 10.042,-0.568 14.373,-0.655c4.25,-0.086 7.663,-0.128 10.238,-0.128c0.311,-0 0.66,-0.066 1.054,-0.138c1.097,-0.199 2.194,-0.432 3.291,-0.698c1.578,-0.383 3.085,-0.717 4.52,-1.004c2.403,-0.48 4.412,-0.661 6.014,-0.661c5.235,0 8.939,1.559 11.503,3.389c0.637,-0.172 1.274,-0.328 1.911,-0.471c4.298,-0.961 8.373,-1.418 12.218,-1.418c6.927,0 12.7,1.708 17.443,4.644c7.157,4.43 10.916,10.978 10.916,19.839c-0,4.853 -1.312,9.127 -3.739,12.878c-2.127,3.287 -4.84,5.938 -8.127,7.968c-0.242,0.15 -0.485,0.296 -0.731,0.438l18.091,-0.499c2.488,-0.047 4.908,0.501 7.131,1.619l0.062,0.033c2.216,-3.706 4.644,-7.755 7.284,-12.147c4.185,-6.96 8.969,-15.038 14.355,-24.235c2.463,-4.207 6.848,-6.922 11.711,-7.253l18.38,-1.25c5.478,-0.373 10.709,2.332 13.57,7.018c1.514,2.479 2.232,5.295 2.153,8.093c5.327,0.561 9.955,2.807 13.885,6.736l0.775,0.811l0.775,-0.811c4.584,-4.584 10.119,-6.877 16.604,-6.877c6.486,0 12.021,2.293 16.605,6.877c4.585,4.585 6.877,10.12 6.877,16.605c0,1.373 -0.102,2.703 -0.308,3.991l7.551,-0.21c3.502,-0.097 6.855,1.054 9.513,3.152c1.936,-1.011 4.108,-1.589 6.369,-1.652l18.13,-0.5c2.545,-0.07 5.012,0.519 7.193,1.652c2.215,-3.706 4.643,-7.755 7.284,-12.147c4.184,-6.96 8.969,-15.038 14.355,-24.235c2.463,-4.207 6.847,-6.922 11.711,-7.253l18.38,-1.25c5.478,-0.373 10.708,2.332 13.57,7.018c1.514,2.479 2.232,5.295 2.153,8.093c5.326,0.561 9.954,2.807 13.884,6.736c4.585,4.585 6.878,10.12 6.878,16.605c-0,6.486 -2.293,12.02 -6.878,16.605c-0.297,0.297 -0.599,0.585 -0.906,0.863c0.243,0.075 0.486,0.158 0.727,0.249l1,0.375c4.148,1.556 7.291,3.993 8.783,9.078c0.812,2.768 1.125,4.454 0.775,11.716c-0.619,12.84 -11.912,18.265 -12.254,39.397c-0.445,27.546 -12.044,28.754 -29.594,29.042c-16.366,0.268 -85.822,-1.251 -124.307,-1.251c-30.215,0 -48.045,5.422 -61.395,9.835c-1.48,0.522 -3.003,0.993 -4.568,1.412c-1.924,0.54 -3.764,0.968 -5.548,1.245c-0.134,0.02 -0.264,0.039 -0.386,0.054Zm-102.192,-64.809c-3.859,3.751 -7.697,6.632 -11.515,8.644c-3.876,2.042 -8.357,3.063 -13.441,3.063c-3.918,-0 -7.002,-0.98 -9.253,-2.938c-2.251,-1.959 -3.376,-4.898 -3.376,-8.815c0,-2.418 0.584,-4.939 1.751,-7.565c1.167,-2.626 2.438,-5.23 3.813,-7.814c1.376,-2.585 2.626,-5.064 3.751,-7.44c1.126,-2.376 1.688,-4.48 1.688,-6.314c0,-2.334 -0.708,-4.022 -2.125,-5.064c-1.417,-1.042 -3.335,-1.563 -5.752,-1.563c-0.5,-0 -0.938,-0.042 -1.313,-0.125c-0.375,-0.083 -0.562,-0.292 -0.562,-0.625c-0,-0.5 0.458,-0.75 1.375,-0.75c3.417,-0 6.481,-0.271 9.19,-0.813c2.709,-0.542 5.335,-1.584 7.877,-3.126c2.542,-1.542 5.147,-3.688 7.815,-6.439c2.667,-2.751 5.626,-6.335 8.877,-10.753c3.001,-4.001 6.085,-7.356 9.253,-10.065c3.167,-2.709 6.335,-4.877 9.502,-6.502c3.168,-1.626 6.335,-2.793 9.503,-3.501c3.167,-0.709 6.168,-1.063 9.002,-1.063c3.835,0 7.065,0.813 9.69,2.438c2.626,1.626 3.939,4.064 3.939,7.315c-0,1.834 -0.459,3.459 -1.375,4.876c-0.917,1.417 -2.084,2.563 -3.501,3.439c-1.417,0.875 -2.98,1.542 -4.689,2c-1.709,0.459 -3.355,0.688 -4.939,0.688c0.917,-1.917 1.73,-3.96 2.438,-6.127c0.709,-2.167 1.063,-4.251 1.063,-6.252c-0,-4.584 -1.417,-6.877 -4.251,-6.877c-1.751,0 -3.376,0.751 -4.877,2.251c-1.5,1.501 -3.042,3.439 -4.626,5.814c-1.584,2.376 -3.292,5.002 -5.126,7.877c-1.834,2.876 -3.918,5.689 -6.252,8.44c-2.751,3.168 -5.501,5.773 -8.252,7.815c-2.751,2.042 -5.793,3.709 -9.128,5.001c-3.334,1.292 -7.064,2.292 -11.19,3.001c-4.126,0.708 -8.898,1.313 -14.317,1.813l0,0.25c1.918,1 3.751,2.042 5.502,3.126c1.75,1.083 3.313,2.355 4.689,3.813c1.375,1.459 2.48,3.105 3.313,4.939c0.834,1.834 1.25,3.96 1.25,6.377c0,1.75 -0.312,3.584 -0.937,5.501c-0.625,1.918 -1.313,3.814 -2.063,5.689c-0.751,1.876 -1.438,3.668 -2.063,5.377c-0.626,1.709 -0.938,3.188 -0.938,4.439c-0,1.417 0.333,2.521 1,3.313c0.667,0.792 1.709,1.188 3.126,1.188c2.334,-0 5.001,-0.98 8.002,-2.938c2.803,-1.83 5.787,-4.368 8.952,-7.615c0.153,-0.569 0.337,-1.157 0.551,-1.763c0.75,-2.126 1.708,-4.355 2.875,-6.689c1.167,-2.334 2.48,-4.71 3.939,-7.127c1.459,-2.418 2.855,-4.689 4.189,-6.815c1.333,-2.125 2.563,-4.042 3.688,-5.751c1.125,-1.709 1.98,-3.063 2.563,-4.064l18.005,-0.5l-4.376,6.752c-4.001,6.002 -7.21,10.899 -9.628,14.691c-2.417,3.793 -4.292,6.877 -5.626,9.253c-1.334,2.376 -2.209,4.209 -2.626,5.501c-0.417,1.292 -0.625,2.439 -0.625,3.439c0,1.084 0.313,1.959 0.938,2.626c0.625,0.666 1.438,1 2.438,1c1.667,-0 3.814,-0.938 6.439,-2.813c2.626,-1.876 5.502,-4.606 8.628,-8.19c3.125,-3.584 6.439,-7.961 9.94,-13.129c3.501,-5.168 6.96,-11.044 10.378,-17.629l18.13,-0.501c-0.751,1.251 -1.813,2.918 -3.189,5.002c-1.375,2.084 -2.917,4.355 -4.626,6.814c-1.709,2.459 -3.459,5.064 -5.252,7.815c-1.792,2.75 -3.417,5.397 -4.876,7.939c-1.459,2.543 -2.646,4.918 -3.563,7.127c-0.917,2.209 -1.376,4.022 -1.376,5.439c0,1.167 0.25,1.98 0.751,2.438c0.5,0.459 1.166,0.688 2,0.688c1.417,0 3.063,-0.583 4.939,-1.75c1.875,-1.167 3.876,-2.689 6.002,-4.564c2.125,-1.876 4.292,-3.98 6.501,-6.314c1.717,-1.814 3.357,-3.627 4.923,-5.441c0.146,-0.328 0.297,-0.66 0.454,-0.999c1.292,-2.792 3.001,-6.085 5.126,-9.877c2.126,-3.793 4.751,-8.315 7.877,-13.566c3.126,-5.252 6.794,-11.378 11.003,-18.38c4.21,-7.002 9.024,-15.13 14.442,-24.382l18.38,-1.25c-8.336,13.837 -15.463,25.548 -21.381,35.134c-5.918,9.586 -10.774,17.609 -14.567,24.069c-3.792,6.46 -6.585,11.587 -8.377,15.379c-1.792,3.793 -2.688,6.815 -2.688,9.065c-0,0.917 0.271,1.626 0.813,2.126c0.541,0.5 1.146,0.75 1.813,0.75c1.917,0 4.334,-1.063 7.252,-3.188c2.917,-2.126 5.939,-4.772 9.065,-7.94c1.627,-1.649 3.227,-3.361 4.798,-5.134c0.737,-1.774 1.68,-3.668 2.829,-5.681c3.209,-5.627 7.272,-12.566 12.19,-20.818l17.88,-0.501c-2.667,4.252 -5.293,8.378 -7.877,12.379c-2.584,4.001 -4.876,7.731 -6.877,11.19c-2,3.46 -3.605,6.523 -4.814,9.19c-1.208,2.668 -1.812,4.793 -1.812,6.377c-0,1.167 0.208,2.146 0.625,2.938c0.416,0.792 1.167,1.188 2.25,1.188c1.667,0 3.48,-0.604 5.439,-1.813c1.959,-1.208 3.981,-2.751 6.064,-4.626c2.084,-1.876 4.168,-4.001 6.252,-6.377c0.769,-0.876 1.521,-1.747 2.256,-2.613c2.456,-4.444 4.809,-8.761 7.059,-12.954c3.043,-5.668 5.856,-10.461 8.44,-14.378l17.38,-0.501c-4.335,7.252 -8.586,14.463 -12.754,21.631c-4.168,7.169 -8.419,14.171 -12.753,21.006l0.25,0.25c4.084,-1.334 7.919,-3.084 11.503,-5.251c3.584,-2.168 6.981,-4.606 10.19,-7.315c1.039,-0.877 2.063,-1.773 3.071,-2.69c0.578,-1.415 1.242,-2.873 1.993,-4.374c1.167,-2.334 2.48,-4.71 3.939,-7.127c1.458,-2.418 2.855,-4.689 4.188,-6.815c1.334,-2.125 2.563,-4.042 3.689,-5.751c1.125,-1.709 1.979,-3.063 2.563,-4.064l18.005,-0.5l-4.376,6.752c-4.001,6.002 -7.211,10.899 -9.628,14.691c-2.417,3.793 -4.293,6.877 -5.626,9.253c-1.334,2.376 -2.209,4.209 -2.626,5.501c-0.417,1.292 -0.625,2.439 -0.625,3.439c-0,1.084 0.312,1.959 0.937,2.626c0.626,0.666 1.438,1 2.439,1c1.667,-0 3.813,-0.938 6.439,-2.813c2.626,-1.876 5.501,-4.606 8.627,-8.19c3.126,-3.584 6.439,-7.961 9.94,-13.129c3.501,-5.168 6.961,-11.044 10.378,-17.629l18.13,-0.501c-0.75,1.251 -1.813,2.918 -3.188,5.002c-1.376,2.084 -2.918,4.355 -4.627,6.814c-1.708,2.459 -3.459,5.064 -5.251,7.815c-1.792,2.75 -3.418,5.397 -4.876,7.939c-1.459,2.543 -2.647,4.918 -3.564,7.127c-0.917,2.209 -1.375,4.022 -1.375,5.439c-0,1.167 0.25,1.98 0.75,2.438c0.5,0.459 1.167,0.688 2.001,0.688c1.417,0 3.063,-0.583 4.938,-1.75c1.876,-1.167 3.877,-2.689 6.002,-4.564c2.126,-1.876 4.293,-3.98 6.502,-6.314c1.716,-1.814 3.357,-3.627 4.922,-5.441c0.147,-0.328 0.298,-0.66 0.454,-0.999c1.292,-2.792 3.001,-6.085 5.127,-9.877c2.125,-3.793 4.751,-8.315 7.877,-13.566c3.126,-5.252 6.793,-11.378 11.003,-18.38c4.209,-7.002 9.023,-15.13 14.441,-24.382l18.38,-1.25c-8.335,13.837 -15.462,25.548 -21.381,35.134c-5.918,9.586 -10.773,17.609 -14.566,24.069c-3.793,6.46 -6.585,11.587 -8.377,15.379c-1.792,3.793 -2.688,6.815 -2.688,9.065c-0,0.917 0.27,1.626 0.812,2.126c0.542,0.5 1.146,0.75 1.813,0.75c1.917,0 4.335,-1.063 7.252,-3.188c2.918,-2.126 5.939,-4.772 9.065,-7.94c1.628,-1.649 3.227,-3.361 4.798,-5.134c0.738,-1.774 1.681,-3.668 2.829,-5.681c3.209,-5.627 7.273,-12.566 12.191,-20.818l17.88,-0.501c-2.667,4.252 -5.293,8.378 -7.877,12.379c-2.584,4.001 -4.877,7.731 -6.877,11.19c-2.001,3.46 -3.605,6.523 -4.814,9.19c-1.209,2.668 -1.813,4.793 -1.813,6.377c0,1.167 0.208,2.146 0.625,2.938c0.417,0.792 1.167,1.188 2.251,1.188c1.667,0 3.48,-0.604 5.439,-1.813c1.959,-1.208 3.98,-2.751 6.064,-4.626c2.084,-1.876 4.168,-4.001 6.252,-6.377c2.084,-2.375 4.042,-4.709 5.876,-7.002c1.834,-2.292 3.48,-4.459 4.939,-6.501c1.459,-2.043 2.647,-3.689 3.564,-4.939l1,0.375c-2.001,2.834 -4.501,6.272 -7.502,10.315c-3.001,4.043 -6.377,7.981 -10.128,11.816c-3.834,3.918 -7.377,6.897 -10.628,8.94c-3.251,2.042 -6.877,3.063 -10.878,3.063c-3.417,0 -6.001,-0.979 -7.752,-2.938c-1.75,-1.959 -2.626,-4.689 -2.626,-8.19c0,-1.485 0.252,-3.116 0.755,-4.894c-0.27,0.297 -0.542,0.594 -0.817,0.893c-2.459,2.667 -5.043,5.126 -7.752,7.377c-2.709,2.251 -5.502,4.105 -8.377,5.564c-2.876,1.459 -5.731,2.188 -8.565,2.188c-3.501,0 -6.127,-0.875 -7.877,-2.626c-1.751,-1.75 -2.626,-3.959 -2.626,-6.626c-0,-1.834 0.292,-3.772 0.875,-5.815c0.214,-0.75 0.477,-1.551 0.787,-2.402c-1.323,1.475 -2.689,2.943 -4.1,4.403c-2.376,2.459 -4.814,4.647 -7.315,6.564c-2.5,1.917 -5.022,3.48 -7.564,4.689c-2.543,1.209 -5.064,1.813 -7.565,1.813c-1.834,0 -3.418,-0.292 -4.751,-0.875c-1.334,-0.584 -2.418,-1.376 -3.251,-2.376c-0.834,-1 -1.459,-2.146 -1.876,-3.438c-0.416,-1.292 -0.625,-2.605 -0.625,-3.939c0,-1 0.125,-2 0.375,-3.001c0.25,-1 0.5,-1.833 0.751,-2.5l-0.251,-0.25c-1.833,2.083 -3.709,4.105 -5.626,6.064c-1.917,1.959 -3.918,3.709 -6.002,5.251c-2.084,1.542 -4.209,2.772 -6.376,3.689c-2.168,0.917 -4.377,1.375 -6.627,1.375c-3.501,0 -6.085,-1.021 -7.752,-3.063c-1.667,-2.043 -2.501,-4.647 -2.501,-7.815c-0,-1.6 0.345,-3.411 1.037,-5.433c-1.005,0.893 -2.018,1.766 -3.038,2.62c-6.918,5.793 -14.42,9.898 -22.506,12.316c-2.334,4.251 -5.126,8.731 -8.377,13.441c-3.251,4.709 -7.21,9.065 -11.878,13.066c-4.668,4.001 -10.128,7.314 -16.38,9.94c-6.251,2.626 -13.545,3.939 -21.881,3.939c-2.834,-0 -5.814,-0.292 -8.94,-0.876c-3.125,-0.583 -5.98,-1.583 -8.564,-3c-2.584,-1.417 -4.731,-3.293 -6.44,-5.627c-1.708,-2.334 -2.563,-5.251 -2.563,-8.752c0,-2.751 0.709,-5.148 2.126,-7.19c1.417,-2.042 3.23,-3.73 5.439,-5.064c2.209,-1.333 4.605,-2.334 7.189,-3c2.584,-0.667 5.043,-1.001 7.377,-1.001c1.917,0 3.73,0.146 5.439,0.438c1.709,0.292 2.897,0.563 3.564,0.813l-0,1c-0.417,-0.083 -0.938,-0.146 -1.563,-0.188c-0.625,-0.041 -1.23,-0.062 -1.813,-0.062c-3.918,-0 -7.023,1.313 -9.315,3.938c-2.293,2.626 -3.439,5.814 -3.439,9.565c0,2.334 0.334,4.523 1.001,6.565c0.666,2.042 1.625,3.834 2.875,5.376c1.251,1.542 2.814,2.772 4.689,3.689c1.876,0.917 4.022,1.375 6.439,1.375c4.085,0 8.169,-1.5 12.254,-4.501c4.084,-3.001 8.085,-6.919 12.003,-11.753c3.918,-4.835 7.752,-10.295 11.503,-16.38c3.751,-6.085 7.335,-12.191 10.753,-18.317l0.03,-0.053c-0.624,0.666 -1.259,1.33 -1.905,1.991c-3.835,3.918 -7.378,6.897 -10.628,8.94c-3.251,2.042 -6.877,3.063 -10.878,3.063c-3.418,0 -6.002,-0.979 -7.752,-2.938c-1.751,-1.959 -2.626,-4.689 -2.626,-8.19c-0,-1.485 0.251,-3.116 0.754,-4.894c-0.269,0.297 -0.542,0.594 -0.817,0.893c-2.459,2.667 -5.043,5.126 -7.752,7.377c-2.709,2.251 -5.501,4.105 -8.377,5.564c-2.876,1.459 -5.731,2.188 -8.565,2.188c-3.501,0 -6.127,-0.875 -7.877,-2.626c-1.751,-1.75 -2.626,-3.959 -2.626,-6.626c0,-1.834 0.292,-3.772 0.875,-5.815c0.215,-0.75 0.477,-1.551 0.787,-2.402c-1.322,1.475 -2.689,2.943 -4.1,4.403c-2.376,2.459 -4.814,4.647 -7.314,6.564c-2.501,1.917 -5.023,3.48 -7.565,4.689c-2.542,1.209 -5.064,1.813 -7.565,1.813c-1.833,0 -3.417,-0.292 -4.751,-0.875c-1.334,-0.584 -2.417,-1.376 -3.251,-2.376c-0.833,-1 -1.458,-2.146 -1.875,-3.438c-0.417,-1.292 -0.625,-2.605 -0.625,-3.939c-0,-1 0.125,-2 0.375,-3.001c0.25,-1 0.5,-1.833 0.75,-2.5l-0.25,-0.25c-1.834,2.083 -3.709,4.105 -5.627,6.064c-1.917,1.959 -3.917,3.709 -6.001,5.251c-2.084,1.542 -4.21,2.772 -6.377,3.689c-2.167,0.917 -4.376,1.375 -6.627,1.375c-3.501,0 -6.085,-1.021 -7.752,-3.063c-1.667,-2.043 -2.501,-4.647 -2.501,-7.815c0,-0.428 0.025,-0.871 0.075,-1.329Zm191.661,24.797l0,10.535c0,0.443 -0.023,0.853 -0.07,1.229c-0.047,0.376 -0.124,0.698 -0.232,0.967c-0.174,0.429 -0.413,0.822 -0.715,1.178c-0.302,0.356 -0.655,0.658 -1.057,0.907c-0.403,0.248 -0.85,0.443 -1.34,0.584c-0.49,0.141 -1.004,0.211 -1.541,0.211c-1.625,0 -2.948,-0.745 -3.968,-2.236l2.578,-2.638c0.067,0.456 0.215,0.819 0.443,1.087c0.229,0.269 0.511,0.403 0.846,0.403c0.739,0 1.108,-0.584 1.108,-1.752l0,-10.475l3.948,0Zm-26.79,7.594c-0,-1.128 0.208,-2.179 0.624,-3.152c0.416,-0.974 0.994,-1.823 1.732,-2.548c0.739,-0.726 1.622,-1.293 2.649,-1.703c1.027,-0.409 2.159,-0.614 3.394,-0.614c1.222,0 2.35,0.205 3.384,0.614c1.034,0.41 1.924,0.977 2.669,1.703c0.746,0.725 1.327,1.574 1.743,2.548c0.416,0.973 0.624,2.024 0.624,3.152c0,1.128 -0.208,2.179 -0.624,3.153c-0.416,0.973 -0.997,1.823 -1.743,2.548c-0.745,0.725 -1.635,1.292 -2.669,1.702c-1.034,0.409 -2.162,0.614 -3.384,0.614c-1.235,0 -2.367,-0.205 -3.394,-0.614c-1.027,-0.41 -1.91,-0.977 -2.649,-1.702c-0.738,-0.725 -1.316,-1.575 -1.732,-2.548c-0.416,-0.974 -0.624,-2.025 -0.624,-3.153Zm61.88,-0.906l7.836,-0c0,0.805 -0.033,1.537 -0.101,2.195c-0.067,0.658 -0.201,1.269 -0.402,1.833c-0.282,0.793 -0.665,1.494 -1.149,2.105c-0.483,0.611 -1.05,1.122 -1.702,1.531c-0.651,0.41 -1.366,0.722 -2.145,0.937c-0.779,0.215 -1.598,0.322 -2.458,0.322c-1.181,0 -2.259,-0.194 -3.233,-0.584c-0.973,-0.389 -1.809,-0.937 -2.507,-1.642c-0.699,-0.705 -1.243,-1.551 -1.632,-2.538c-0.39,-0.987 -0.584,-2.078 -0.584,-3.273c-0,-1.182 0.191,-2.266 0.574,-3.253c0.383,-0.987 0.926,-1.83 1.631,-2.528c0.706,-0.698 1.555,-1.242 2.549,-1.632c0.993,-0.389 2.101,-0.584 3.323,-0.584c1.585,0 2.975,0.343 4.17,1.027c1.195,0.685 2.142,1.746 2.84,3.183l-3.746,1.551c-0.35,-0.832 -0.803,-1.43 -1.36,-1.793c-0.557,-0.362 -1.192,-0.544 -1.904,-0.544c-0.591,0 -1.128,0.111 -1.611,0.333c-0.484,0.221 -0.897,0.537 -1.239,0.947c-0.342,0.409 -0.611,0.903 -0.806,1.48c-0.194,0.578 -0.292,1.222 -0.292,1.934c0,0.644 0.084,1.242 0.252,1.793c0.168,0.55 0.42,1.027 0.755,1.43c0.336,0.403 0.752,0.715 1.249,0.937c0.497,0.221 1.075,0.332 1.733,0.332c0.389,-0 0.765,-0.044 1.128,-0.131c0.362,-0.087 0.688,-0.228 0.977,-0.423c0.288,-0.195 0.527,-0.447 0.715,-0.755c0.188,-0.309 0.315,-0.685 0.382,-1.128l-3.243,-0l0,-3.062Zm-12.066,-2.8c-0.429,-0.349 -0.859,-0.608 -1.289,-0.776c-0.43,-0.168 -0.846,-0.252 -1.249,-0.252c-0.51,0 -0.926,0.121 -1.249,0.363c-0.322,0.242 -0.483,0.557 -0.483,0.947c-0,0.268 0.081,0.49 0.242,0.665c0.161,0.174 0.372,0.325 0.634,0.453c0.262,0.127 0.557,0.238 0.887,0.332c0.329,0.094 0.654,0.195 0.976,0.302c1.29,0.43 2.233,1.004 2.831,1.723c0.597,0.718 0.896,1.655 0.896,2.81c0,0.778 -0.131,1.483 -0.393,2.115c-0.262,0.631 -0.644,1.171 -1.148,1.621c-0.504,0.45 -1.121,0.799 -1.853,1.048c-0.732,0.248 -1.561,0.372 -2.488,0.372c-1.92,0 -3.7,-0.57 -5.338,-1.712l1.692,-3.183c0.591,0.524 1.175,0.914 1.753,1.169c0.577,0.255 1.148,0.382 1.712,0.382c0.644,0 1.124,-0.147 1.44,-0.443c0.316,-0.295 0.473,-0.631 0.473,-1.007c0,-0.228 -0.04,-0.426 -0.12,-0.594c-0.081,-0.168 -0.215,-0.322 -0.403,-0.463c-0.188,-0.141 -0.433,-0.272 -0.736,-0.393c-0.302,-0.121 -0.668,-0.255 -1.097,-0.403c-0.511,-0.161 -1.011,-0.339 -1.501,-0.534c-0.49,-0.195 -0.927,-0.453 -1.309,-0.775c-0.383,-0.323 -0.692,-0.729 -0.927,-1.219c-0.235,-0.49 -0.352,-1.111 -0.352,-1.863c-0,-0.752 0.124,-1.434 0.372,-2.045c0.249,-0.611 0.598,-1.135 1.048,-1.571c0.45,-0.437 1,-0.776 1.651,-1.017c0.652,-0.242 1.38,-0.363 2.186,-0.363c0.752,0 1.538,0.104 2.357,0.312c0.819,0.208 1.605,0.514 2.357,0.917l-1.572,3.082Zm75.982,11.3l-5.782,-15.188l-4.31,0l-5.781,15.188l4.21,0l0.906,-2.639l5.64,0l0.907,2.639l4.21,0Zm-32.411,0l-0,-7.292l5.559,-7.896l-4.713,0l-2.8,4.15l-2.82,-4.15l-4.714,0l5.54,7.896l-0,7.292l3.948,0Zm49.311,0l0,-15.188l-3.928,0l0,9.286l-7.292,-9.286l-3.948,0l-0,15.188l3.948,0l0,-9.286c2.431,3.096 4.861,6.191 7.292,9.286l3.928,0Zm-57.852,0l-4.774,-6.224c1.088,-0.255 1.91,-0.742 2.467,-1.46c0.558,-0.719 0.836,-1.656 0.836,-2.81c0,-0.645 -0.104,-1.249 -0.312,-1.813c-0.208,-0.564 -0.517,-1.061 -0.926,-1.491c-0.41,-0.43 -0.93,-0.769 -1.562,-1.017c-0.631,-0.249 -1.369,-0.373 -2.215,-0.373l-6.144,0l-0,15.188l3.948,0l0,-5.841c1.256,1.947 2.511,3.894 3.767,5.841l4.915,0Zm25.481,-11.844l0,-3.344l-10.434,0l0,3.344l3.243,-0l0,11.844l3.948,0l0,-11.844l3.243,-0Zm-71.69,-0l-0,-3.344l-8.642,0l0,15.188l8.642,0l-0,-3.344l-4.694,0l0,-2.618l4.432,-0l-0,-3.344l-4.432,-0l0,-2.538l4.694,-0Zm-41.315,11.844l0,-15.188l-3.928,0l0,9.286l-7.292,-9.286l-3.948,0l0,15.188l3.948,0l0,-9.286c2.431,3.096 4.862,6.191 7.292,9.286l3.928,0Zm6.809,-7.594c-0,0.604 0.114,1.162 0.342,1.672c0.229,0.51 0.538,0.954 0.927,1.33c0.389,0.376 0.843,0.668 1.36,0.876c0.517,0.208 1.064,0.312 1.641,0.312c0.578,0 1.125,-0.104 1.642,-0.312c0.517,-0.208 0.974,-0.5 1.37,-0.876c0.396,-0.376 0.708,-0.82 0.936,-1.33c0.229,-0.51 0.343,-1.068 0.343,-1.672c-0,-0.604 -0.114,-1.161 -0.343,-1.672c-0.228,-0.51 -0.54,-0.953 -0.936,-1.329c-0.396,-0.376 -0.853,-0.668 -1.37,-0.876c-0.517,-0.209 -1.064,-0.313 -1.642,-0.313c-0.577,0 -1.124,0.104 -1.641,0.313c-0.517,0.208 -0.971,0.5 -1.36,0.876c-0.389,0.376 -0.698,0.819 -0.927,1.329c-0.228,0.511 -0.342,1.068 -0.342,1.672Zm115.503,1.954l-1.773,-5.056l-1.773,5.056l3.546,0Zm-42.725,-6.506c0.779,-0 1.377,0.161 1.793,0.483c0.416,0.322 0.625,0.786 0.625,1.39c-0,0.604 -0.209,1.068 -0.625,1.39c-0.416,0.322 -1.014,0.483 -1.793,0.483l-0.745,0l0,-3.746l0.745,-0Zm-73.201,-6.486c-0,-0.256 0.05,-0.501 0.151,-0.736c0.101,-0.235 0.242,-0.443 0.423,-0.624c0.181,-0.181 0.393,-0.322 0.635,-0.423c0.241,-0.101 0.496,-0.151 0.765,-0.151c0.269,-0 0.52,0.05 0.755,0.151c0.235,0.101 0.444,0.238 0.625,0.413c0.181,0.174 0.325,0.383 0.433,0.624c0.107,0.242 0.161,0.497 0.161,0.766c0,0.282 -0.054,0.54 -0.161,0.775c-0.108,0.235 -0.249,0.443 -0.423,0.625c-0.175,0.181 -0.383,0.322 -0.625,0.423c-0.241,0.1 -0.49,0.151 -0.745,0.151c-0.577,-0 -1.054,-0.195 -1.43,-0.584c-0.376,-0.39 -0.564,-0.86 -0.564,-1.41Zm5.479,-0c-0,-0.256 0.05,-0.501 0.151,-0.736c0.101,-0.235 0.242,-0.443 0.423,-0.624c0.181,-0.181 0.393,-0.322 0.635,-0.423c0.241,-0.101 0.496,-0.151 0.765,-0.151c0.269,-0 0.52,0.05 0.755,0.151c0.235,0.101 0.444,0.238 0.625,0.413c0.181,0.174 0.325,0.383 0.433,0.624c0.107,0.242 0.161,0.497 0.161,0.766c0,0.564 -0.191,1.034 -0.574,1.41c-0.383,0.376 -0.849,0.564 -1.4,0.564c-0.564,-0 -1.034,-0.192 -1.41,-0.574c-0.376,-0.383 -0.564,-0.856 -0.564,-1.42Zm-173.13,-98.42c1.5,-0 2.917,0.041 4.251,0.125c1.334,0.083 2.5,0.125 3.501,0.125c1.25,-0 2.48,-0.146 3.688,-0.438c1.209,-0.292 1.813,-0.813 1.813,-1.563c0,-1.5 -1.25,-2.25 -3.751,-2.25c-0.833,-0 -1.875,0.125 -3.126,0.375c-1.25,0.25 -2.563,0.542 -3.938,0.875c-1.376,0.333 -2.751,0.625 -4.126,0.875c-1.376,0.25 -2.605,0.375 -3.689,0.375c-2.5,0 -5.814,0.042 -9.94,0.125c-4.126,0.084 -8.69,0.292 -13.691,0.626c-5.002,0.333 -10.295,0.833 -15.88,1.5c-5.584,0.667 -11.086,1.563 -16.504,2.688c-5.418,1.126 -10.586,2.543 -15.504,4.251c-4.918,1.709 -9.274,3.793 -13.066,6.252c-3.793,2.459 -6.794,5.314 -9.003,8.565c-2.209,3.251 -3.313,6.96 -3.313,11.128c-0,5.001 1.542,8.94 4.626,11.816c3.084,2.875 7.085,4.313 12.003,4.313c3.835,0 7.336,-0.625 10.503,-1.875c3.168,-1.251 5.877,-2.855 8.127,-4.814c2.251,-1.959 3.981,-4.168 5.189,-6.627c1.209,-2.459 1.813,-4.855 1.813,-7.189c0,-2.251 -0.333,-4.126 -1,-5.627c-0.667,-1.5 -1.417,-2.751 -2.251,-3.751l-1.125,0.5c1.917,2.584 2.876,5.46 2.876,8.628c-0,1.833 -0.438,3.73 -1.313,5.689c-0.875,1.959 -2.084,3.709 -3.626,5.251c-1.542,1.542 -3.355,2.813 -5.439,3.814c-2.084,1 -4.293,1.5 -6.627,1.5c-3.167,0 -5.793,-1 -7.877,-3.001c-2.084,-2 -3.126,-4.626 -3.126,-7.877c0,-4.001 1.417,-8.044 4.251,-12.128c2.835,-4.085 7.523,-7.752 14.067,-11.003c6.543,-3.251 15.15,-5.918 25.819,-8.002c10.67,-2.084 23.882,-3.168 39.636,-3.251l0,0.25c-3.668,0.667 -7.606,1.771 -11.816,3.313c-4.209,1.542 -8.46,3.668 -12.753,6.377c-4.293,2.709 -8.461,6.106 -12.503,10.19c-4.043,4.085 -7.732,9.003 -11.066,14.754c-4.335,7.502 -8.273,14.442 -11.816,20.818c-3.542,6.377 -7.043,11.879 -10.503,16.505c-3.459,4.626 -7.064,8.273 -10.815,10.94c-3.751,2.668 -8.086,4.043 -13.004,4.126c-2.75,0.084 -4.98,-0.625 -6.689,-2.125c-1.709,-1.5 -2.563,-3.543 -2.563,-6.127c-0,-0.333 0.021,-0.583 0.062,-0.75c0.042,-0.167 0.063,-0.333 0.063,-0.5c1.584,-0.417 2.709,-1.23 3.376,-2.438c0.667,-1.209 1,-2.605 1,-4.189c0,-2.084 -0.792,-3.688 -2.375,-4.814c-1.584,-1.125 -3.335,-1.688 -5.252,-1.688c-2.917,0 -5.126,0.938 -6.627,2.814c-1.5,1.875 -2.25,4.147 -2.25,6.814c-0,2.167 0.5,4.147 1.5,5.939c1,1.792 2.397,3.313 4.189,4.564c1.792,1.25 3.917,2.23 6.376,2.938c2.459,0.709 5.148,1.063 8.065,1.063c7.502,-0 14.108,-1.063 19.818,-3.188c5.71,-2.126 10.815,-4.981 15.317,-8.565c4.501,-3.585 8.481,-7.711 11.94,-12.379c3.46,-4.668 6.669,-9.523 9.628,-14.566c2.959,-5.043 5.772,-10.086 8.44,-15.129c2.667,-5.043 5.46,-9.732 8.377,-14.067c2.751,-4.167 5.564,-7.606 8.44,-10.315c2.876,-2.709 5.564,-4.855 8.065,-6.439c2.5,-1.584 4.73,-2.667 6.689,-3.251c1.959,-0.583 3.397,-0.875 4.314,-0.875l0.125,-0Zm132.161,23.256c-0,-2.417 0.854,-4.48 2.563,-6.189c1.709,-1.709 3.772,-2.563 6.189,-2.563c2.417,-0 4.48,0.854 6.189,2.563c1.709,1.709 2.563,3.772 2.563,6.189c0,2.417 -0.854,4.48 -2.563,6.189c-1.709,1.709 -3.772,2.563 -6.189,2.563c-2.417,0 -4.48,-0.854 -6.189,-2.563c-1.709,-1.709 -2.563,-3.772 -2.563,-6.189Zm171.421,0c0,-2.417 0.855,-4.48 2.563,-6.189c1.709,-1.709 3.772,-2.563 6.19,-2.563c2.417,-0 4.48,0.854 6.189,2.563c1.709,1.709 2.563,3.772 2.563,6.189c-0,2.417 -0.854,4.48 -2.563,6.189c-1.709,1.709 -3.772,2.563 -6.189,2.563c-2.418,0 -4.481,-0.854 -6.19,-2.563c-1.708,-1.709 -2.563,-3.772 -2.563,-6.189Zm-127.91,-8.752c2.418,-0 4.481,0.854 6.19,2.563c1.708,1.709 2.563,3.772 2.563,6.189c-0,2.417 -0.855,4.48 -2.563,6.189c-1.709,1.709 -3.772,2.563 -6.19,2.563c-2.417,0 -4.48,-0.854 -6.189,-2.563c-1.709,-1.709 -2.563,-3.772 -2.563,-6.189c0,-2.417 0.854,-4.48 2.563,-6.189c1.709,-1.709 3.772,-2.563 6.189,-2.563Z" style="fill:#059576;"/></svg>